<?xml version="1.0" encoding="iso-8859-1"?>
<!-- Generator: Adobe Illustrator 15.0.0, SVG Export Plug-In . SVG Version: 6.00 Build 0)  -->
<!DOCTYPE svg PUBLIC "-//W3C//DTD SVG 1.1//EN" "http://www.w3.org/Graphics/SVG/1.1/DTD/svg11.dtd">
<svg version="1.1" id="Layer_1" xmlns="http://www.w3.org/2000/svg" xmlns:xlink="http://www.w3.org/1999/xlink" x="0px" y="0px"
	 width="288px" height="71px" viewBox="-43.303 -17.991 288 71" style="enable-background:new -43.303 -17.991 288 71;"
	 xml:space="preserve">
<g>
	<path style="fill:#3A3A3B;" d="M76.494,41.486h49.072V-7.587H76.494V41.486z M77.754,17.733h22.511v22.492H77.754V17.733z
		 M101.484,40.224V17.733h22.823v22.492H101.484z M124.307,16.513h-22.823v-22.84h22.823V16.513z M100.265-6.327v22.84H77.754
		v-22.84H100.265z"/>
	<path style="fill:#3A3A3B;" d="M82.798,32.29c0,0,0.061,0.273,0.205,0.593c0.041,0.092,0.035,0.086,0.088,0.19
		c0.485,0.694,2.532,0.598,3.776,1.164c0,0,4.196,0.005,4.206,0.001c4.102-0.239,5.562-1.993,5.562-1.993L82.798,32.29z"/>
	<path style="fill:#3A3A3B;" d="M87.238,21.458l-0.432-0.983c-0.306-0.336-0.59,3.69-0.751,6.559l4.347,1.958L87.238,21.458z"/>
	<path style="fill:#3A3A3B;" d="M90.845,30.045l-4.837-2.178c-0.06,1.127-0.095,1.928-0.095,1.928
		c1.347,1.309,5.548,1.716,5.548,1.716L90.845,30.045z"/>
	<circle style="fill:#3A3A3B;" cx="108.623" cy="2.977" r="1.1"/>
	<path style="fill:#3A3A3B;" d="M112.51,4.078c0.605,0,1.098-0.493,1.098-1.102c0-0.606-0.492-1.098-1.101-1.1
		c-0.609,0-1.101,0.491-1.101,1.1S111.899,4.078,112.51,4.078z"/>
	<path style="fill:#3A3A3B;" d="M114.438-1.838c0,0-1.165,0.383-1.446,0.753c-0.278,0.372-0.384,1.681-0.384,1.681
		s1.226-0.462,1.508-0.833C114.395-0.61,114.438-1.838,114.438-1.838z"/>
	<path style="fill:#3A3A3B;" d="M112.445,8.276c-0.604,0-1.1,0.492-1.1,1.101c0.003,0.608,0.495,1.102,1.104,1.102
		c0.605,0,1.1-0.494,1.1-1.102C113.549,8.77,113.054,8.276,112.445,8.276z"/>
	<circle style="fill:#3A3A3B;" cx="110.617" cy="6.088" r="1.101"/>
	<circle style="fill:#3A3A3B;" cx="116.513" cy="2.978" r="1.1"/>
	<circle style="fill:#3A3A3B;" cx="114.625" cy="6.088" r="1.101"/>
	<path style="fill:#3A3A3B;" d="M112.423,23.105h-3.718v11.646h1.748v-2.703h1.97c0.345,0,0.677-0.034,1.028-0.074l0.556-0.117
		c2-0.537,3.199-2.135,3.199-4.272C117.206,24.862,115.329,23.105,112.423,23.105z M110.453,30.356v-5.563h1.908
		c2.695,0,3.097,1.75,3.097,2.791c0,1.266-0.537,2.772-3.097,2.772H110.453z"/>
	<path style="fill:#3A3A3B;" d="M86.337,8.205h1.971c0.216,0,0.426-0.012,0.64-0.031l2.178,2.741l2.291,0.031l-2.632-3.268
		c1.46-0.726,2.306-2.142,2.306-3.936c0-2.721-1.876-4.479-4.783-4.479h-3.72v11.644h1.749V8.205z M86.338,0.953h1.911
		c2.691,0,3.094,1.748,3.094,2.79c0,1.265-0.536,2.775-3.094,2.775h-1.911V0.953z"/>
	<path style="fill:#3A3A3B;" d="M154.195,13.288c-2.173,0-3.709,1.671-3.709,3.672c0,2,1.514,3.648,3.688,3.648
		s3.711-1.668,3.711-3.668C157.885,14.937,156.368,13.288,154.195,13.288z M154.195,19.468c-1.405,0-2.407-1.142-2.407-2.527
		c0-1.385,0.985-2.509,2.388-2.509c1.407,0,2.404,1.142,2.404,2.529C156.58,18.345,155.601,19.468,154.195,19.468z"/>
	<polygon style="fill:#3A3A3B;" points="168.219,13.412 166.692,13.412 163.324,16.969 163.324,13.412 162.082,13.412 
		162.079,20.488 163.324,20.488 163.324,18.436 164.429,17.304 166.844,20.488 168.348,20.488 165.274,16.455 	"/>
	<path style="fill:#3A3A3B;" d="M174.89,13.361l-3.116,7.127h1.273l0.728-1.708h3.347l0.719,1.708h1.313l-3.113-7.127H174.89z
		 M174.232,17.677l1.216-2.83l1.222,2.83H174.232z"/>
	<polygon style="fill:#3A3A3B;" points="187.93,18.304 184.139,13.412 182.985,13.412 182.985,20.49 184.208,20.49 184.208,15.453 
		188.112,20.49 189.153,20.49 189.153,13.412 187.93,13.412 	"/>
	<path style="fill:#3A3A3B;" d="M196.097,13.361l-3.113,7.127h1.275l0.728-1.708h3.345l0.718,1.708h1.316l-3.114-7.127H196.097z
		 M195.44,17.677l1.214-2.83l1.227,2.83H195.44z"/>
	<path style="fill:#3A3A3B;" d="M207.134,17.617h1.808v1.324c-0.438,0.324-1.041,0.536-1.706,0.536
		c-1.448,0-2.408-1.071-2.408-2.536c0-1.376,0.99-2.509,2.295-2.509c0.898,0,1.435,0.293,1.985,0.759l0.784-0.94
		c-0.726-0.618-1.486-0.962-2.717-0.962c-2.134,0-3.65,1.681-3.65,3.672c0,2.071,1.455,3.65,3.671,3.65
		c1.254,0,2.254-0.507,2.951-1.104v-2.97h-3.013V17.617z"/>
	<path style="fill:#3A3A3B;" d="M216.815,13.361l-3.113,7.127h1.273l0.726-1.708h3.348l0.721,1.708h1.314l-3.114-7.127H216.815z
		 M216.159,17.677l1.213-2.83l1.221,2.83H216.159z"/>
	<polygon style="fill:#3A3A3B;" points="229.855,13.412 229.855,18.304 226.066,13.412 224.913,13.412 224.913,20.49 226.135,20.49 
		226.135,15.453 230.038,20.49 231.081,20.49 231.081,13.412 	"/>
	<path style="fill:#3A3A3B;" d="M-9.773,12.014c-0.843,0-1.713,0.395-2.448,1.114c-1.09,1.058-1.766,2.504-1.766,3.776
		c0,1.366,0.84,2.283,2.088,2.283c0.826,0,1.537-0.314,2.31-1.021c1.166-1.101,1.89-2.576,1.89-3.853
		C-7.699,13.003-8.589,12.014-9.773,12.014z M-9.667,16.473c-0.316,0.857-0.882,1.883-1.793,1.883c-0.635,0-1.013-0.526-1.013-1.407
		c0-0.587,0.128-1.309,0.352-1.983c0.425-1.286,1.191-2.149,1.911-2.149c0.615,0,0.984,0.575,0.984,1.542
		C-9.225,14.948-9.386,15.717-9.667,16.473z"/>
	<path style="fill:#3A3A3B;" d="M-0.546,12.014c-1.255,0-2.24,0.832-2.24,1.893c0,0.625,0.201,1.081,0.892,2.041
		c0.824,1.109,0.902,1.296,0.902,1.679c0,0.405-0.384,0.774-0.804,0.774c-0.277,0-0.472-0.091-0.695-0.568
		c-0.185-0.409-0.387-0.683-0.78-0.683c-0.403,0-0.719,0.31-0.719,0.703c0,0.737,0.808,1.334,1.802,1.334
		c1.36,0,2.345-0.914,2.345-2.179c0-0.656-0.172-1.012-1.025-2.117c-0.619-0.806-0.828-1.186-0.828-1.497
		c0-0.315,0.341-0.596,0.729-0.596c0.201,0,0.329,0.061,0.47,0.387c0.172,0.401,0.371,0.668,0.779,0.668
		c0.378,0,0.675-0.315,0.675-0.718C0.957,12.489,0.325,12.014-0.546,12.014z"/>
	<path style="fill:#3A3A3B;" d="M9.056,12.014c-0.843,0-1.714,0.395-2.447,1.114c-1.088,1.058-1.768,2.504-1.768,3.776
		c0,1.366,0.842,2.283,2.091,2.283c0.825,0,1.536-0.314,2.311-1.021c1.164-1.101,1.887-2.576,1.887-3.853
		C11.13,13.003,10.239,12.014,9.056,12.014z M9.161,16.473c-0.316,0.857-0.883,1.883-1.793,1.883c-0.634,0-1.014-0.526-1.014-1.407
		c0-0.587,0.128-1.309,0.352-1.983c0.425-1.286,1.195-2.149,1.912-2.149c0.617,0,0.984,0.575,0.984,1.542
		C9.602,14.948,9.441,15.717,9.161,16.473z"/>
	<path style="fill:#3A3A3B;" d="M21.457,12.014c-0.413,0-0.703,0.299-0.703,0.733c0,0.201,0.042,0.346,0.191,0.676
		c0.138,0.354,0.184,0.551,0.184,0.785c0,0.987-0.608,2.351-1.642,3.695l-1.069-4.514c-0.208-0.871-0.457-1.373-1.12-1.373
		c-0.74,0-1.477,0.85-2.02,2.335l-0.078,0.217h0.761l0.039-0.104c0.421-1.085,0.757-1.374,0.867-1.374
		c0.02,0.009,0.089,0.086,0.14,0.314l1.365,5.769c-1.11,1.057-2.103,1.686-2.655,1.686c-0.231,0-0.382-0.063-0.707-0.288
		c-0.329-0.229-0.505-0.3-0.755-0.3c-0.388,0-0.702,0.315-0.702,0.703c0,0.544,0.555,0.914,1.38,0.914
		c1.126,0,2.716-0.902,4.049-2.296c0.559-0.586,1.42-1.703,2.01-2.602c0.875-1.423,1.378-2.768,1.378-3.685
		C22.371,12.521,22.012,12.014,21.457,12.014z"/>
	<path style="fill:#3A3A3B;" d="M30.471,12.014c-0.843,0-1.712,0.395-2.446,1.114c-1.091,1.058-1.768,2.504-1.768,3.776
		c0,1.366,0.84,2.283,2.09,2.283c0.825,0,1.536-0.314,2.309-1.021c1.164-1.101,1.887-2.576,1.887-3.853
		C32.544,13.003,31.654,12.014,30.471,12.014z M30.576,16.473c-0.316,0.857-0.883,1.883-1.793,1.883
		c-0.634,0-1.013-0.526-1.013-1.407c0-0.587,0.127-1.309,0.353-1.983c0.423-1.286,1.192-2.149,1.912-2.149
		c0.615,0,0.984,0.575,0.984,1.542C31.018,14.948,30.858,15.717,30.576,16.473z"/>
	<path style="fill:#3A3A3B;" d="M40.848,12.014c-0.845,0-1.713,0.395-2.447,1.114c-1.091,1.058-1.767,2.504-1.767,3.776
		c0,1.366,0.838,2.283,2.091,2.283c0.824,0,1.535-0.314,2.308-1.021c1.164-1.101,1.889-2.576,1.889-3.853
		C42.92,13.003,42.031,12.014,40.848,12.014z M40.953,16.473c-0.317,0.857-0.884,1.883-1.794,1.883
		c-0.634,0-1.014-0.526-1.014-1.407c0-0.587,0.129-1.309,0.354-1.983c0.423-1.286,1.191-2.149,1.911-2.149
		c0.615,0,0.984,0.575,0.984,1.542C41.393,14.948,41.233,15.717,40.953,16.473z"/>
	<path style="fill:#3A3A3B;" d="M50.074,12.014c-1.255,0-2.24,0.832-2.24,1.893c0,0.625,0.201,1.081,0.891,2.041
		c0.825,1.109,0.903,1.296,0.903,1.679c0,0.405-0.383,0.774-0.805,0.774c-0.278,0-0.472-0.091-0.695-0.568
		c-0.184-0.409-0.386-0.683-0.78-0.683c-0.402,0-0.717,0.31-0.717,0.703c0,0.737,0.807,1.334,1.801,1.334
		c1.36,0,2.345-0.914,2.345-2.179c0-0.656-0.173-1.012-1.027-2.117c-0.619-0.806-0.826-1.186-0.826-1.497
		c0-0.315,0.341-0.596,0.728-0.596c0.201,0,0.33,0.061,0.471,0.387c0.172,0.401,0.371,0.668,0.781,0.668
		c0.377,0,0.672-0.315,0.672-0.718C51.576,12.489,50.944,12.014,50.074,12.014z"/>
</g>
</svg>
