<?xml version="1.0" encoding="iso-8859-1"?>
<!-- Generator: Adobe Illustrator 15.0.0, SVG Export Plug-In . SVG Version: 6.00 Build 0)  -->
<!DOCTYPE svg PUBLIC "-//W3C//DTD SVG 1.1//EN" "http://www.w3.org/Graphics/SVG/1.1/DTD/svg11.dtd">
<svg version="1.1" id="Layer_1" xmlns="http://www.w3.org/2000/svg" xmlns:xlink="http://www.w3.org/1999/xlink" x="0px" y="0px"
	 width="215.938px" height="59.018px" viewBox="28.548 0 215.938 59.018" style="enable-background:new 28.548 0 215.938 59.018;"
	 xml:space="preserve">
<g>
	<path style="fill:#FFFFFF;" d="M115.932,48.804h39.542V9.262h-39.542V48.804z M116.948,29.665h18.14v18.123h-18.14V29.665z
		 M136.07,47.788V29.665h18.39v18.123H136.07z M154.458,28.681h-18.39V10.277h18.39V28.681z M135.086,10.277v18.404h-18.14V10.277
		H135.086z"/>
	<path style="fill:#FFFFFF;" d="M121.012,41.394c0,0,0.049,0.219,0.164,0.479c0.033,0.072,0.028,0.068,0.071,0.152
		c0.392,0.561,2.04,0.481,3.042,0.938c0,0,3.381,0.005,3.391,0.002c3.305-0.193,4.48-1.607,4.48-1.607L121.012,41.394z"/>
	<path style="fill:#FFFFFF;" d="M124.588,32.666l-0.349-0.792c-0.246-0.271-0.476,2.974-0.605,5.284l3.505,1.576L124.588,32.666z"/>
	<path style="fill:#FFFFFF;" d="M127.495,39.586l-3.897-1.756c-0.049,0.909-0.076,1.554-0.076,1.554
		c1.086,1.056,4.471,1.384,4.471,1.384L127.495,39.586z"/>
	<circle style="fill:#FFFFFF;" cx="141.82" cy="17.774" r="0.886"/>
	<circle style="fill:#FFFFFF;" cx="144.951" cy="17.774" r="0.887"/>
	<path style="fill:#FFFFFF;" d="M146.507,13.894c0,0-0.938,0.31-1.166,0.606c-0.226,0.3-0.311,1.354-0.311,1.354
		s0.989-0.372,1.216-0.671C146.472,14.884,146.507,13.894,146.507,13.894z"/>
	<circle style="fill:#FFFFFF;" cx="144.902" cy="22.931" r="0.887"/>
	<circle style="fill:#FFFFFF;" cx="143.428" cy="20.281" r="0.887"/>
	<circle style="fill:#FFFFFF;" cx="148.179" cy="17.775" r="0.886"/>
	<circle style="fill:#FFFFFF;" cx="146.656" cy="20.281" r="0.887"/>
	<path style="fill:#FFFFFF;" d="M144.883,33.993h-2.996v9.383h1.408v-2.178h1.588c0.277,0,0.543-0.027,0.828-0.061l0.447-0.094
		c1.613-0.436,2.578-1.722,2.578-3.443C148.738,35.409,147.225,33.993,144.883,33.993z M143.295,39.837v-4.483h1.537
		c2.172,0,2.495,1.409,2.495,2.249c0,1.021-0.434,2.234-2.495,2.234H143.295L143.295,39.837z"/>
	<path style="fill:#FFFFFF;" d="M123.863,21.987h1.589c0.174,0,0.343-0.01,0.516-0.024l1.756,2.209l1.847,0.024l-2.122-2.633
		c1.177-0.585,1.858-1.727,1.858-3.172c0-2.191-1.513-3.607-3.854-3.607h-2.997v9.383h1.408V21.987z M123.864,16.143h1.539
		c2.17,0,2.494,1.408,2.494,2.248c0,1.021-0.433,2.235-2.494,2.235h-1.539V16.143z"/>
	<path style="fill:#FFFFFF;" d="M178.541,26.083c-1.752,0-2.988,1.347-2.988,2.959c0,1.611,1.221,2.939,2.973,2.939
		s2.99-1.345,2.99-2.957C181.516,27.411,180.292,26.083,178.541,26.083z M178.541,31.062c-1.132,0-1.938-0.92-1.938-2.036
		c0-1.115,0.791-2.021,1.923-2.021c1.134,0,1.938,0.92,1.938,2.037C180.463,30.157,179.674,31.062,178.541,31.062z"/>
	<polygon style="fill:#FFFFFF;" points="189.84,26.182 188.613,26.182 185.899,29.05 185.899,26.182 184.897,26.182 184.896,31.885 
		185.899,31.885 185.899,30.231 186.786,29.319 188.734,31.885 189.948,31.885 187.47,28.635 	"/>
	<path style="fill:#FFFFFF;" d="M195.216,26.141l-2.509,5.743h1.024l0.588-1.377h2.696l0.579,1.377h1.059l-2.509-5.743H195.216z
		 M194.688,29.62l0.979-2.281l0.984,2.281H194.688z"/>
	<polygon style="fill:#FFFFFF;" points="205.726,30.125 202.67,26.183 201.741,26.183 201.741,31.885 202.728,31.885 
		202.728,27.827 205.872,31.885 206.71,31.885 206.71,26.183 205.726,26.183 	"/>
	<path style="fill:#FFFFFF;" d="M212.308,26.141l-2.511,5.743h1.027l0.587-1.377h2.695l0.578,1.377h1.061l-2.511-5.743H212.308z
		 M211.778,29.62l0.979-2.281l0.986,2.281H211.778z"/>
	<path style="fill:#FFFFFF;" d="M221.199,29.571h1.456v1.066c-0.352,0.261-0.84,0.432-1.377,0.432c-1.165,0-1.939-0.862-1.939-2.043
		c0-1.108,0.799-2.021,1.851-2.021c0.727,0,1.157,0.236,1.599,0.611l0.635-0.759c-0.587-0.498-1.197-0.774-2.19-0.774
		c-1.72,0-2.94,1.354-2.94,2.959c0,1.67,1.174,2.94,2.958,2.94c1.012,0,1.816-0.407,2.379-0.89V28.7h-2.428v0.87H221.199z"/>
	<path style="fill:#FFFFFF;" d="M229,26.141l-2.509,5.743h1.025l0.587-1.377h2.696l0.578,1.377h1.06l-2.509-5.743H229z
		 M228.471,29.62l0.978-2.281l0.985,2.281H228.471z"/>
	<polygon style="fill:#FFFFFF;" points="239.508,26.183 239.508,30.125 236.454,26.183 235.526,26.183 235.526,31.885 
		236.511,31.885 236.511,27.827 239.656,31.885 240.495,31.885 240.495,26.183 	"/>
	<path style="fill:#FFFFFF;" d="M46.418,25.056c-0.68,0-1.38,0.317-1.972,0.897c-0.879,0.853-1.424,2.019-1.424,3.043
		c0,1.101,0.677,1.84,1.684,1.84c0.665,0,1.238-0.254,1.86-0.823c0.938-0.888,1.521-2.076,1.521-3.104
		C48.089,25.853,47.372,25.056,46.418,25.056z M46.504,28.649c-0.255,0.69-0.712,1.519-1.444,1.519
		c-0.513,0-0.816-0.424-0.816-1.134c0-0.474,0.104-1.056,0.284-1.599c0.342-1.036,0.96-1.73,1.54-1.73
		c0.495,0,0.793,0.463,0.793,1.24C46.861,27.421,46.731,28.04,46.504,28.649z"/>
	<path style="fill:#FFFFFF;" d="M53.855,25.056c-1.013,0-1.806,0.67-1.806,1.524c0,0.504,0.161,0.871,0.719,1.645
		c0.664,0.895,0.728,1.044,0.728,1.354c0,0.326-0.31,0.623-0.647,0.623c-0.225,0-0.382-0.074-0.562-0.457
		c-0.147-0.33-0.312-0.552-0.628-0.552c-0.325,0-0.579,0.25-0.579,0.566c0,0.594,0.651,1.075,1.452,1.075
		c1.096,0,1.89-0.736,1.89-1.756c0-0.528-0.14-0.814-0.826-1.705c-0.498-0.649-0.666-0.955-0.666-1.207
		c0-0.254,0.273-0.479,0.587-0.479c0.162,0,0.265,0.049,0.379,0.312c0.138,0.324,0.299,0.539,0.628,0.539
		c0.306,0,0.543-0.254,0.543-0.578C55.065,25.438,54.556,25.056,53.855,25.056z"/>
	<path style="fill:#FFFFFF;" d="M61.59,25.056c-0.679,0-1.38,0.317-1.971,0.897c-0.878,0.853-1.425,2.019-1.425,3.043
		c0,1.101,0.678,1.84,1.685,1.84c0.665,0,1.238-0.254,1.861-0.823c0.938-0.888,1.521-2.076,1.521-3.104
		C63.262,25.853,62.543,25.056,61.59,25.056z M61.675,28.649c-0.255,0.69-0.712,1.519-1.443,1.519c-0.512,0-0.817-0.424-0.817-1.134
		c0-0.474,0.104-1.056,0.284-1.599c0.342-1.036,0.962-1.73,1.54-1.73c0.497,0,0.793,0.463,0.793,1.24
		C62.031,27.421,61.902,28.04,61.675,28.649z"/>
	<path style="fill:#FFFFFF;" d="M71.583,25.056c-0.333,0-0.566,0.241-0.566,0.591c0,0.161,0.033,0.278,0.154,0.544
		c0.111,0.285,0.148,0.444,0.148,0.634c0,0.795-0.49,1.895-1.323,2.977l-0.86-3.637c-0.168-0.701-0.368-1.106-0.902-1.106
		c-0.597,0-1.189,0.687-1.627,1.882l-0.063,0.176h0.613l0.032-0.084c0.339-0.875,0.608-1.107,0.697-1.107
		c0.017,0.008,0.07,0.07,0.111,0.254l1.101,4.648c-0.896,0.852-1.692,1.357-2.14,1.357c-0.187,0-0.309-0.051-0.568-0.23
		c-0.266-0.187-0.407-0.242-0.608-0.242c-0.312,0-0.566,0.254-0.566,0.565c0,0.438,0.447,0.736,1.113,0.736
		c0.907,0,2.188-0.728,3.262-1.851c0.45-0.474,1.146-1.373,1.619-2.098c0.706-1.146,1.11-2.229,1.11-2.969
		C72.321,25.464,72.031,25.056,71.583,25.056z"/>
	<path style="fill:#FFFFFF;" d="M78.847,25.056c-0.68,0-1.381,0.317-1.972,0.897c-0.879,0.853-1.424,2.019-1.424,3.043
		c0,1.101,0.676,1.84,1.685,1.84c0.664,0,1.237-0.254,1.86-0.823c0.938-0.888,1.521-2.076,1.521-3.104
		C80.518,25.853,79.799,25.056,78.847,25.056z M78.932,28.649c-0.256,0.69-0.712,1.519-1.445,1.519
		c-0.511,0-0.816-0.424-0.816-1.134c0-0.474,0.104-1.056,0.285-1.599c0.341-1.036,0.96-1.73,1.54-1.73
		c0.496,0,0.793,0.463,0.793,1.24C79.287,27.421,79.157,28.04,78.932,28.649z"/>
	<path style="fill:#FFFFFF;" d="M87.207,25.056c-0.68,0-1.38,0.317-1.972,0.897c-0.879,0.853-1.424,2.019-1.424,3.043
		c0,1.101,0.676,1.84,1.685,1.84c0.664,0,1.237-0.254,1.86-0.823c0.938-0.888,1.521-2.076,1.521-3.104
		C88.877,25.853,88.16,25.056,87.207,25.056z M87.292,28.649c-0.255,0.69-0.712,1.519-1.444,1.519c-0.512,0-0.817-0.424-0.817-1.134
		c0-0.474,0.104-1.056,0.285-1.599c0.341-1.036,0.96-1.73,1.54-1.73c0.496,0,0.793,0.463,0.793,1.24
		C87.649,27.421,87.519,28.04,87.292,28.649z"/>
	<path style="fill:#FFFFFF;" d="M94.644,25.056c-1.013,0-1.806,0.67-1.806,1.524c0,0.504,0.162,0.871,0.719,1.645
		c0.664,0.895,0.728,1.044,0.728,1.354c0,0.326-0.309,0.623-0.647,0.623c-0.226,0-0.382-0.074-0.562-0.457
		c-0.147-0.33-0.312-0.552-0.629-0.552c-0.323,0-0.578,0.25-0.578,0.566c0,0.594,0.651,1.075,1.452,1.075
		c1.096,0,1.89-0.736,1.89-1.756c0-0.528-0.14-0.814-0.827-1.705c-0.497-0.649-0.666-0.955-0.666-1.207
		c0-0.254,0.275-0.479,0.588-0.479c0.161,0,0.265,0.049,0.379,0.312c0.139,0.324,0.299,0.539,0.629,0.539
		c0.305,0,0.542-0.254,0.542-0.578C95.854,25.438,95.343,25.056,94.644,25.056z"/>
</g>
</svg>
