<?xml version="1.0" encoding="iso-8859-1"?>
<!-- Generator: Adobe Illustrator 15.0.0, SVG Export Plug-In . SVG Version: 6.00 Build 0)  -->
<!DOCTYPE svg PUBLIC "-//W3C//DTD SVG 1.1//EN" "http://www.w3.org/Graphics/SVG/1.1/DTD/svg11.dtd">
<svg version="1.1" id="Layer_1" xmlns="http://www.w3.org/2000/svg" xmlns:xlink="http://www.w3.org/1999/xlink" x="0px" y="0px"
	 width="828.688px" height="99.181px" viewBox="0 0 828.688 99.181" style="enable-background:new 0 0 828.688 99.181;"
	 xml:space="preserve">
<g>
	<path style="fill:#FFFFFF;" d="M566.597,11.017H552.18v67h7v-16h7.417c2.116,0,4.108-0.272,5.909-0.481l3.291-0.715
		c11.384-3.061,18.181-12.139,18.181-24.308C593.978,21.014,583.229,11.017,566.597,11.017z M566.224,55.017h-7.044v-37h7.044
		c18.108,0,20.812,11.472,20.812,18.547C587.037,48.543,579.452,55.017,566.224,55.017z"/>
	<polygon style="fill:#FFFFFF;" points="167.18,11.017 160.18,11.017 160.18,78.017 200.18,78.017 200.18,72.017 167.18,72.017 	"/>
	<polygon style="fill:#FFFFFF;" points="108.18,78.017 115.18,78.017 115.18,55.017 146.18,55.017 146.18,48.017 115.18,48.017 
		115.18,18.017 149.18,18.017 149.18,11.017 108.18,11.017 	"/>
	<polygon style="fill:#FFFFFF;" points="68.18,47.017 91.18,47.017 91.18,40.017 68.18,40.017 68.18,18.017 94.18,18.017 
		94.18,11.017 61.18,11.017 61.18,64.017 95.18,64.017 95.18,57.017 68.18,57.017 	"/>
	<polygon style="fill:#FFFFFF;" points="220.18,55.017 243.18,55.017 243.18,48.017 220.18,48.017 220.18,17.017 246.18,17.017 
		246.18,10.017 213.18,10.017 213.18,79.017 247.18,79.017 247.18,72.017 220.18,72.017 	"/>
	<polygon style="fill:#FFFFFF;" points="301.18,18.017 321.18,18.017 321.18,78.017 328.18,78.017 328.18,18.017 350.18,18.017 
		350.18,11.017 301.18,11.017 	"/>
	<polygon style="fill:#FFFFFF;" points="775.18,11.017 775.18,18.017 794.18,18.017 794.18,78.017 801.18,78.017 801.18,18.017 
		822.18,18.017 822.18,11.017 	"/>
	<rect x="361.18" y="11.017" style="fill:#FFFFFF;" width="7" height="67"/>
	<rect x="687.18" y="11.017" style="fill:#FFFFFF;" width="7" height="67"/>
	<path style="fill:#FFFFFF;" d="M638.626,9.396c-19.697,0-35.125,15.429-35.125,35.125c0,19.698,15.428,35.127,35.125,35.127
		c19.698,0,35.128-15.429,35.128-35.127C673.754,24.825,658.325,9.396,638.626,9.396z M638.626,73.278
		c-16.167,0-28.358-12.362-28.358-28.757c0-16.394,12.191-28.757,28.358-28.757s28.359,12.363,28.359,28.757
		C666.986,60.916,654.793,73.278,638.626,73.278z"/>
	<path style="fill:#FFFFFF;" d="M418.843,9.396c-19.697,0-35.125,15.429-35.125,35.125c0,19.698,15.428,35.127,35.125,35.127
		c19.698,0,35.128-15.429,35.128-35.127C453.971,24.825,438.542,9.396,418.843,9.396z M418.843,73.278
		c-16.167,0-28.358-12.362-28.358-28.757c0-16.394,12.191-28.757,28.358-28.757s28.359,12.363,28.359,28.757
		C447.203,60.916,435.01,73.278,418.843,73.278z"/>
	<polygon style="fill:#FFFFFF;" points="513.18,64.456 471.657,9.017 468.18,9.017 468.18,78.017 475.18,78.017 475.18,24.909 
		516.477,80.017 520.18,80.017 520.18,11.017 513.18,11.017 	"/>
	<polygon style="fill:#FFFFFF;" points="757.18,64.456 715.714,9.017 712.18,9.017 712.18,78.017 719.18,78.017 719.18,24.909 
		760.533,80.017 764.18,80.017 764.18,11.017 757.18,11.017 	"/>
	<path style="fill:#FFFFFF;" d="M255.328,44.671c-0.097,19.432,14.158,33.917,33.632,34.442l2.22,0.054v-6.658l-2.109-0.056
		c-15.365-0.463-26.613-12.143-26.613-27.772c0-15.643,11.53-27.593,26.628-27.796l2.094-0.026V10.2l-2.191,0.024
		C269.69,10.458,255.423,24.945,255.328,44.671z"/>
	<path style="fill:#FFFFFF;" d="M84.365,76.474c-4.386,6.044-10.844,9.913-17.716,10.616c-6.425,0.664-12.606-1.41-17.497-5.867
		c-3.254-2.964-6.109-6.951-8.87-10.806l-7.565-10.559c9.667-3.726,15.386-12.33,15.386-23.362c0-15.498-10.748-25.479-27.38-25.479
		H7.18v67h7v-16h6.542c1.647,0,3.218-0.195,4.689-0.35l9.23,12.85c2.969,4.143,6.04,8.412,9.826,11.862
		c5.6,5.102,12.464,7.791,19.851,7.791c1.008,0,2.031-0.056,3.039-0.159c8.837-0.904,17.086-5.809,22.633-13.45l1.162-1.601
		l-5.626-4.084L84.365,76.474z M20.35,55.017H14.18v-37h6.169c18.108,0,20.811,11.472,20.811,18.547
		C41.161,48.543,33.576,55.017,20.35,55.017z"/>
</g>
</svg>
